<?xml version="1.0" encoding="UTF-8" standalone="no"?>
<svg width="200px" height="50px" viewBox="0 0 200 50" version="1.1" xmlns="http://www.w3.org/2000/svg" xmlns:xlink="http://www.w3.org/1999/xlink">
    <!-- Generator: Sketch 3.8.3 (29802) - http://www.bohemiancoding.com/sketch -->
    <title>netidee-Logo-4c-Standard Copy</title>
    <desc>Created with Sketch.</desc>
    <defs>
        <linearGradient x1="67.3923206%" y1="101.050046%" x2="34.4080157%" y2="-6.16990441%" id="linearGradient-1">
            <stop stop-color="#8BC379" offset="0%"></stop>
            <stop stop-color="#8AC37C" offset="24.37%"></stop>
            <stop stop-color="#87C384" offset="41.28%"></stop>
            <stop stop-color="#81C290" offset="55.94%"></stop>
            <stop stop-color="#79C1A1" offset="69.31%"></stop>
            <stop stop-color="#6EBFB5" offset="81.8%"></stop>
            <stop stop-color="#5EBDCB" offset="93.49%"></stop>
            <stop stop-color="#53BBD9" offset="100%"></stop>
        </linearGradient>
        <linearGradient x1="50.0064257%" y1="-4.62119135%" x2="50.0064257%" y2="198.58408%" id="linearGradient-2">
            <stop stop-color="#6A338A" offset="0%"></stop>
            <stop stop-color="#41B9EB" offset="100%"></stop>
        </linearGradient>
        <linearGradient x1="50.0693995%" y1="101.831811%" x2="50.0693995%" y2="-3.05674705%" id="linearGradient-3">
            <stop stop-color="#8CC371" stop-opacity="0" offset="0%"></stop>
            <stop stop-color="#4F5C97" offset="100%"></stop>
        </linearGradient>
        <linearGradient x1="69.4197697%" y1="-13.5873236%" x2="19.1028583%" y2="132.973542%" id="linearGradient-4">
            <stop stop-color="#53BBD9" offset="5.439496%"></stop>
            <stop stop-color="#D2D138" offset="73.84%"></stop>
        </linearGradient>
        <linearGradient x1="98.1909989%" y1="-60.7152647%" x2="-40.9398463%" y2="194.999508%" id="linearGradient-5">
            <stop stop-color="#41B9EB" offset="0%"></stop>
            <stop stop-color="#C3D219" offset="100%"></stop>
        </linearGradient>
        <linearGradient x1="33.839233%" y1="-3.91920711%" x2="100.341101%" y2="99.8991114%" id="linearGradient-6">
            <stop stop-color="#C0E3E9" offset="0%"></stop>
            <stop stop-color="#C7E4DD" offset="100%"></stop>
        </linearGradient>
        <linearGradient x1="50.0002242%" y1="0.255731225%" x2="50.0002242%" y2="100.05415%" id="linearGradient-7">
            <stop stop-color="#5C6BB0" offset="0%"></stop>
            <stop stop-color="#7BC18D" offset="74.72%"></stop>
            <stop stop-color="#7BC18D" stop-opacity="0" offset="100%"></stop>
        </linearGradient>
        <linearGradient x1="50.0083821%" y1="-1.42547179%" x2="50.0083821%" y2="103.76805%" id="linearGradient-8">
            <stop stop-color="#5C6BB0" offset="0%"></stop>
            <stop stop-color="#8CC371" stop-opacity="0" offset="100%"></stop>
        </linearGradient>
        <linearGradient x1="0.0258788332%" y1="49.9831392%" x2="100.067988%" y2="49.9831392%" id="linearGradient-9">
            <stop stop-color="#8BC379" offset="0%"></stop>
            <stop stop-color="#7BC08B" offset="100%"></stop>
        </linearGradient>
        <linearGradient x1="49.8891566%" y1="-112.139789%" x2="49.8891566%" y2="699.397895%" id="linearGradient-10">
            <stop stop-color="#6A338A" offset="0%"></stop>
            <stop stop-color="#41B9EB" offset="100%"></stop>
        </linearGradient>
        <linearGradient x1="49.9790068%" y1="-3.81840537%" x2="49.9790068%" y2="103.80842%" id="linearGradient-11">
            <stop stop-color="#233573" offset="10.42%"></stop>
            <stop stop-color="#1E768E" offset="100%"></stop>
        </linearGradient>
        <linearGradient x1="43.6340807%" y1="-137.218161%" x2="51.8733184%" y2="101.720404%" id="linearGradient-12">
            <stop stop-color="#8BC379" offset="38.92%"></stop>
            <stop stop-color="#FFD803" offset="89.52%"></stop>
        </linearGradient>
        <linearGradient x1="49.887076%" y1="101.580652%" x2="49.887076%" y2="-2.2696419%" id="linearGradient-13">
            <stop stop-color="#4E64A8" offset="0%"></stop>
            <stop stop-color="#2E2254" offset="100%"></stop>
        </linearGradient>
    </defs>
    <g id="Projektdetailseiten" stroke="none" stroke-width="1" fill="none" fill-rule="evenodd">
        <g id="netidee-web-projekt-detail-maxi" transform="translate(-21.000000, -17.000000)">
            <g id="Group-12" transform="translate(2.000000, 0.000000)">
                <g id="netidee-Navigation-Scroll">
                    <g id="Group-6">
                        <g id="netidee-Logo-4c-Standard-Copy" transform="translate(19.000000, 17.000000)">
                            <g id="Ebene_1">
                                <g id="Group">
                                    <g>
                                        <path d="M44.3633992,37.0843091 C42.9974735,37.0843091 41.8883885,38.1264637 41.7599681,39.4613583 L41.7599681,40.8313817 L41.7599681,41.0070258 C41.7599681,42.4473068 40.5925103,43.618267 39.1565371,43.618267 C37.7205639,43.618267 36.553106,42.4473068 36.553106,41.0070258 L36.553106,23.5948478 C36.553106,20.1288056 35.1871803,16.8149883 32.7471934,14.3676815 C31.0076811,12.6229508 28.8362095,11.4285714 26.4779446,10.8899297 C26.2561276,11.6042155 26.1393818,12.3653396 26.1393818,13.1615925 L26.1393818,16.2177986 C29.1747723,17.295082 31.3462439,20.1873536 31.3462439,23.6065574 L31.3462439,41.030445 C31.3462439,45.3512881 34.836943,48.8641686 39.1565371,48.8641686 C43.4644566,48.8641686 46.9668303,45.3629977 46.9668303,41.030445 L46.9668303,40.8430913 L46.9668303,39.5784543 C46.9084574,38.1967213 45.7643486,37.0843091 44.3633992,37.0843091 L44.3633992,37.0843091 Z" id="Shape" fill="url(#linearGradient-1)"></path>
                                        <path d="M43.1609176,3.92271663 C40.7209306,1.47540984 37.4053503,0.105386417 33.9613495,0.105386417 C32.4319797,0.105386417 30.9376337,0.37470726 29.5250096,0.889929742 C33.4943664,1.94379391 37.1601841,4.02810304 40.1138525,6.99063232 C44.1999551,11.088993 46.6165929,16.557377 46.9318065,22.3185012 C46.9551557,22.1779859 46.9668303,22.0374707 46.9668303,21.8852459 L46.9668303,13.1615925 C46.9668303,9.69555035 45.6009045,6.37002342 43.1609176,3.92271663 L43.1609176,3.92271663 Z" id="Shape" fill="url(#linearGradient-2)"></path>
                                        <path d="M26.4779446,10.9016393 L26.4779446,10.8899297 C28.8945824,11.4637002 30.9609828,12.5995316 32.7822171,14.4145199 C35.222204,16.8618267 36.5881298,20.1873536 36.5881298,23.6416862 L36.5881298,31.4754098 C36.5881298,32.4238876 36.0744483,33.2552693 35.3272753,33.7119438 L32.6537967,33.7119438 C31.8949491,33.2552693 31.3929422,32.4355972 31.3929422,31.4871194 L31.3929422,23.6416862 L31.3929422,23.618267 L31.3929422,18.3840749 C31.3929422,14.9765808 29.513335,11.9789227 26.4779446,10.9016393 L26.4779446,10.9016393 Z" id="Shape" fill="url(#linearGradient-3)" opacity="0.6"></path>
                                        <path d="M23.5476253,26.2997658 C22.1116521,26.2997658 20.9441943,25.1288056 20.9441943,23.6885246 L20.9441943,36.8384075 C20.9441943,41.1592506 17.4534952,44.6721311 13.1339011,44.6721311 C8.82598152,44.6721311 5.3236079,41.1709602 5.3236079,36.8384075 L5.3236079,23.5948478 C5.3236079,18.7470726 7.23823882,14.0983607 10.6588904,10.6791569 C14.079542,7.24824356 18.7143497,5.32786885 23.5359507,5.32786885 L23.5359507,5.32786885 C23.8978627,4.83606557 24.3064729,4.3676815 24.7384323,3.93442623 C26.1043581,2.56440281 27.7271245,1.53395785 29.5016605,0.889929742 C27.5636804,0.37470726 25.5556529,0.105386417 23.5242762,0.105386417 C17.3134003,0.105386417 11.3593651,2.57611241 6.95804893,6.99063232 C2.56840732,11.3934426 0.0933966299,17.3770492 0.0933966299,23.6065574 L0.0933966299,36.8501171 C0.0933966299,40.3161593 1.45932234,43.6299766 3.8993093,46.0772834 C6.33929625,48.5245902 9.65487662,49.8946136 13.0988773,49.8946136 C16.5545526,49.8946136 19.8584584,48.5245902 22.2984454,46.0772834 C24.7384323,43.6299766 26.1043581,40.3044496 26.1043581,36.8501171 L26.1043581,23.6885246 C26.1510564,25.1288056 24.9835985,26.2997658 23.5476253,26.2997658 L23.5476253,26.2997658 Z" id="Shape" fill="url(#linearGradient-4)"></path>
                                        <path d="M10.53047,23.5948478 L10.53047,36.6861827 C10.53047,38.1264637 11.6979279,39.2974239 13.1339011,39.2974239 C14.5698743,39.2974239 15.7373321,38.1264637 15.7373321,36.6861827 L15.7373321,23.5948478 C15.7373321,20.1873536 17.9088038,17.2833724 20.9441943,16.206089 L20.9441943,13.1498829 C20.9441943,12.3419204 21.0259163,11.5456674 21.1660112,10.7611241 C18.5976039,11.2412178 16.2159899,12.4824356 14.3480573,14.3559719 C11.9080703,16.8149883 10.53047,20.1288056 10.53047,23.5948478 L10.53047,23.5948478 Z" id="Shape" fill="url(#linearGradient-5)"></path>
                                        <path d="M41.7599681,13.1498829 C41.7599681,8.82903981 38.2692691,5.31615925 33.949675,5.31615925 C32.4553289,5.31615925 31.066054,5.73770492 29.8869216,6.46370023 C32.3152339,7.36533958 34.5567531,8.79391101 36.4246857,10.6674473 C39.5417982,13.793911 41.4564291,18.0679157 41.7599681,22.4473068" id="Shape" fill="url(#linearGradient-6)"></path>
                                        <path d="M23.5476253,15.7611241 C22.6370082,15.7611241 21.7614148,15.9250585 20.9441943,16.206089 L20.9441943,17.8220141 L20.9441943,23.676815 L20.9441943,30.5737705 L26.1510564,30.5737705 L26.1510564,23.676815 L26.1510564,23.676815 L26.1510564,16.206089 C25.3338359,15.9250585 24.4582425,15.7611241 23.5476253,15.7611241 L23.5476253,15.7611241 Z" id="Shape" fill="url(#linearGradient-7)"></path>
                                        <path d="M7.06312014,12.1896956 C2.67347853,16.5925059 0.128420366,22.5761124 0.128420366,28.8056206 L0.128420366,35.7611241 L5.34695706,35.7611241 L5.34695706,23.5831382 C5.34695706,18.735363 7.26158797,14.0866511 10.6822395,10.6674473 C13.5775351,7.76346604 17.3717732,5.94847775 21.3878282,5.45667447 C21.3995028,5.44496487 21.3761537,5.46838407 21.3878282,5.45667447 C15.9941729,5.97189696 10.9274057,8.31381733 7.06312014,12.1896956 L7.06312014,12.1896956 Z" id="Shape" fill="url(#linearGradient-8)"></path>
                                        <path d="M20.9441943,26.7681499 L20.9441943,36.8384075 C20.9441943,36.9437939 20.9441943,37.0491803 20.9325197,37.1662763 C20.8507976,40.5152225 19.4965465,43.7002342 17.126607,46.0655738 C15.3053727,47.8922717 13.0054807,49.1100703 10.53047,49.6252927 C11.3827143,49.8009368 12.2466331,49.8946136 13.1339011,49.8946136 C16.5895764,49.8946136 19.8934822,48.5245902 22.3334691,46.0772834 C24.7734561,43.6299766 26.1393818,40.3044496 26.1393818,36.8501171 L26.1393818,26.7798595 L20.9441943,26.7798595 L20.9441943,26.7681499 Z" id="Shape" fill="url(#linearGradient-9)"></path>
                                        <path d="M23.5476253,10.5386417 C24.5399645,10.5386417 25.5323037,10.6557377 26.4896192,10.8782201 C27.0499989,9.01639344 28.2758297,7.45901639 29.8985961,6.46370023 C27.8905686,5.71428571 25.7424461,5.31615925 23.5592999,5.31615925 C22.3568183,6.92037471 21.5395978,8.79391101 21.1776858,10.7611241 C21.948208,10.6206089 22.7420794,10.5386417 23.5476253,10.5386417 L23.5476253,10.5386417 Z" id="Shape" fill="url(#linearGradient-10)"></path>
                                        <path d="M26.4896192,10.8782201 C25.5323037,10.6557377 24.5516391,10.5386417 23.5476253,10.5386417 C22.7420794,10.5386417 21.948208,10.6206089 21.1660112,10.7611241 C21.0259163,11.5456674 20.9441943,12.3419204 20.9441943,13.1498829 L20.9441943,16.206089 C21.7614148,15.9133489 22.6370082,15.7611241 23.5476253,15.7611241 C24.4582425,15.7611241 25.3338359,15.9250585 26.1510564,16.206089 L26.1510564,13.1498829 C26.1510564,12.3653396 26.2678022,11.6042155 26.4896192,10.8782201 L26.4896192,10.8782201 Z" id="Shape" fill="#244876"></path>
                                        <path d="M44.34005,24.5199063 C45.6476029,24.5199063 46.7333387,23.559719 46.9434811,22.3067916 C46.6282675,16.5456674 44.2116297,11.088993 40.1255271,6.97892272 C37.1718587,4.01639344 33.506041,1.93208431 29.5366842,0.878220141 C27.7621482,1.52224824 26.1277072,2.55269321 24.7734561,3.92271663 C24.3414967,4.3559719 23.9328864,4.82435597 23.5709745,5.31615925 C25.7541207,5.31615925 27.9022432,5.71428571 29.9102707,6.46370023 C31.0894032,5.73770492 32.4903526,5.31615925 33.9730241,5.31615925 C38.2809437,5.31615925 41.7833173,8.81733021 41.7833173,13.1498829 L41.7833173,22.4473068 C42.0284835,23.6416862 43.0791955,24.5199063 44.34005,24.5199063 L44.34005,24.5199063 Z" id="Shape" fill="#253777"></path>
                                        <path d="M46.9084574,21.7213115 C46.5348708,17.0140515 44.7486603,12.4824356 41.8066665,8.81733021 L41.8066665,8.86416862 L41.7833173,13.1615925 L41.7833173,22.4590164 C42.040158,23.6416862 43.0908701,24.5316159 44.3517246,24.5316159 C45.6592774,24.5316159 46.7450133,23.5714286 46.9551557,22.3185012 C46.9434811,22.1077283 46.9201319,21.9203747 46.9084574,21.7213115 L46.9084574,21.7213115 Z" id="Shape" fill="url(#linearGradient-11)"></path>
                                        <ellipse id="Oval" fill="url(#linearGradient-12)" cx="44.3633992" cy="30.7845433" rx="2.60343106" ry="2.61124122"></ellipse>
                                        <path d="M46.9901794,13.1615925 C46.9901794,9.69555035 45.6242537,6.38173302 43.1842667,3.93442623 C41.3630325,2.10772834 39.074815,0.878220141 36.5998043,0.362997658 C39.6351948,1.44028103 41.7949919,4.49648712 41.7949919,7.90398126 L41.7949919,8.84074941 C44.7486603,12.5175644 46.5932437,17.5644028 46.9668303,22.2716628 C47.0368777,22.0491803 47.001854,21.2412178 47.001854,20.9836066 L47.001854,13.1615925 L46.9901794,13.1615925 Z" id="Shape" fill="url(#linearGradient-13)"></path>
                                    </g>
                                    <g transform="translate(56.621707, 0.351288)" id="Shape">
                                        <g fill="#3D3D3B">
                                            <path d="M18.3641124,32.8922717 C16.7179968,32.8922717 15.8190542,32.0374707 15.8190542,30.2459016 L15.8190542,19.2271663 C15.8190542,14.2622951 13.9861453,12.3302108 9.74827325,12.3302108 C6.17585215,12.3302108 4.12112629,14.3442623 4.12112629,19.2271663 L4.12112629,32.8805621 L2.60343106,32.8805621 C1.13243414,32.8805621 0.105071209,31.9906323 0.105071209,30.1053864 L0.105071209,19.1334895 C0.105071209,12.412178 4.12112629,8.47775176 10.2386056,8.47775176 C16.2159899,8.47775176 19.8351093,11.9203747 19.8351093,19.0866511 L19.8351093,32.8805621 L18.3641124,32.8805621 L18.3641124,32.8922717 Z"></path>
                                            <path d="M33.6694851,22.763466 L27.7854974,22.763466 C28.1824331,26.7447307 30.9493082,29.5667447 35.4206719,29.5667447 C39.0864896,29.5667447 41.3163341,28.4074941 42.6472361,27.1077283 L42.8690531,27.1077283 L42.8690531,28.8992974 C42.8690531,31.4051522 40.1955746,33.3372365 34.836943,33.3372365 C28.2758297,33.3372365 23.6293474,28.2786885 23.6293474,21.381733 C23.6293474,13.6299766 28.4509484,8.48946136 34.7902446,8.48946136 C39.436727,8.48946136 43.8030194,12.0257611 43.8030194,16.8149883 C43.8030194,21.0187354 41.8416902,22.763466 33.6694851,22.763466 L33.6694851,22.763466 Z M34.3466106,12.1545667 C30.4122776,12.1545667 27.9139178,15.4683841 27.7854974,18.559719 L27.7387991,19.5433255 L33.144129,19.4496487 C38.8996964,19.3559719 39.880361,18.8173302 39.880361,17.0257611 C39.880361,14.4379391 38.0941504,12.1545667 34.3466106,12.1545667 L34.3466106,12.1545667 Z"></path>
                                            <path d="M52.0686212,8.98126464 L60.2875246,8.98126464 L60.2875246,10.3278689 C60.2875246,11.8032787 59.30686,12.7868852 57.1587375,12.7868852 L52.1153195,12.7868852 L52.1153195,24.6487119 C52.1153195,28.0562061 53.457896,29.4847775 56.0496525,29.4847775 C57.5206494,29.4847775 58.9566226,29.3559719 59.7971923,28.8173302 L60.0190093,28.8173302 L60.0190093,30.2459016 C60.0190093,32.2599532 58.4546157,33.3372365 55.6877406,33.3372365 C50.3758072,33.3372365 48.0525661,30.5620609 48.0525661,25.058548 L48.0525661,9.47306792 C48.0525661,8.07962529 48.414478,6.74473068 49.079929,5.76112412 C49.6636579,4.90632319 50.9945599,4.06323185 51.5782889,4.06323185 L52.0686212,4.06323185 L52.0686212,8.98126464 L52.0686212,8.98126464 Z"></path>
                                            <path d="M65.5060613,5.6206089 C63.9883661,5.6206089 62.7391861,4.3676815 62.7391861,2.84543326 C62.7391861,1.32318501 63.9883661,0.0234192037 65.5060613,0.0234192037 C67.0237565,0.0234192037 68.2262381,1.32318501 68.2262381,2.84543326 C68.2262381,4.3676815 67.0237565,5.6206089 65.5060613,5.6206089 L65.5060613,5.6206089 Z M70.502781,33.1147541 C65.8096003,33.1147541 63.3579388,30.7845433 63.3579388,25.9953162 L63.3579388,8.93442623 L64.6071187,8.93442623 C65.9963936,8.93442623 67.4206922,10.0117096 67.4206922,12.1077283 L67.4206922,25.4098361 C67.4206922,28.4074941 68.8916891,29.3559719 71.1215337,29.3559719 L72.8610459,29.3559719 L72.8610459,30.7025761 C72.8727205,32.2131148 71.9270796,33.1147541 70.502781,33.1147541 L70.502781,33.1147541 Z"></path>
                                            <path d="M85.1427027,33.3372365 C79.2003421,33.3372365 74.2036225,27.9156909 74.2036225,21.2529274 C74.2036225,13.0562061 78.0445589,8.48946136 84.6523704,8.48946136 C87.5593405,8.48946136 90.1861207,9.83606557 91.8439109,13.1030445 L91.8439109,0.644028103 L92.9179722,0.644028103 C94.9259997,0.644028103 95.9533626,1.72131148 95.9533626,3.95784543 L95.9533626,20.2107728 C95.9533626,29.3911007 92.6027585,33.3372365 85.1427027,33.3372365 L85.1427027,33.3372365 Z M84.7924654,12.2833724 C80.6363153,12.2833724 78.3247487,15.4566745 78.3247487,20.8782201 C78.3247487,25.6674473 81.2667426,29.5199063 85.5162892,29.5199063 C89.847558,29.5199063 91.8088872,27.1896956 91.8088872,21.323185 C91.7972126,16.9906323 90.5013344,12.2833724 84.7924654,12.2833724 L84.7924654,12.2833724 Z"></path>
                                            <path d="M109.787738,22.763466 L103.892076,22.763466 C104.289012,26.7447307 107.055887,29.5667447 111.527251,29.5667447 C115.193068,29.5667447 117.422913,28.4074941 118.753815,27.1077283 L118.975632,27.1077283 L118.975632,28.8992974 C118.975632,31.4051522 116.302153,33.3372365 110.943522,33.3372365 C104.382408,33.3372365 99.7359261,28.2786885 99.7359261,21.381733 C99.7359261,13.6299766 104.557527,8.48946136 110.896823,8.48946136 C115.543306,8.48946136 119.909598,12.0257611 119.909598,16.8149883 C119.921273,21.0187354 117.959944,22.763466 109.787738,22.763466 L109.787738,22.763466 Z M110.453189,12.1545667 C106.518856,12.1545667 104.020497,15.4683841 103.892076,18.559719 L103.845378,19.5433255 L109.250708,19.4496487 C115.006275,19.3559719 115.98694,18.8173302 115.98694,17.0257611 C115.98694,14.4379391 114.200729,12.1545667 110.453189,12.1545667 L110.453189,12.1545667 Z"></path>
                                            <path d="M133.090198,22.763466 L127.194535,22.763466 C127.591471,26.7447307 130.358346,29.5667447 134.82971,29.5667447 C138.495528,29.5667447 140.725372,28.4074941 142.056274,27.1077283 L142.278091,27.1077283 L142.278091,28.8992974 C142.278091,31.4051522 139.604613,33.3372365 134.245981,33.3372365 C127.684868,33.3372365 123.038385,28.2786885 123.038385,21.381733 C123.038385,13.6299766 127.859986,8.48946136 134.199283,8.48946136 C138.845765,8.48946136 143.212057,12.0257611 143.212057,16.8149883 C143.223732,21.0187354 141.262403,22.763466 133.090198,22.763466 L133.090198,22.763466 Z M133.755649,12.1545667 C129.821316,12.1545667 127.322956,15.4683841 127.194535,18.559719 L127.147837,19.5433255 L132.553167,19.4496487 C138.308734,19.3559719 139.289399,18.8173302 139.289399,17.0257611 C139.289399,14.4379391 137.514863,12.1545667 133.755649,12.1545667 L133.755649,12.1545667 Z"></path>
                                        </g>
                                        <g transform="translate(30.353905, 38.407494)" fill="#333335">
                                            <path d="M3.87596014,8.07962529 L3.79423809,8.07962529 L3.7358652,8.07962529 C2.743526,8.04449649 1.83290886,7.62295082 1.14410872,6.8969555 C0.408610256,6.13583138 0.0116745787,5.14051522 0.0116745787,4.05152225 C0.0116745787,2.98594848 0.408610256,1.97892272 1.14410872,1.21779859 C1.83290886,0.491803279 2.743526,0.0702576112 3.7358652,0.0351288056 L3.87596014,0.0351288056 C4.85662475,0.0702576112 5.7672419,0.491803279 6.46771662,1.21779859 C7.1915405,1.97892272 7.58847618,2.97423888 7.58847618,4.05152225 C7.58847618,5.12880562 7.1915405,6.13583138 6.46771662,6.8969555 C5.7672419,7.63466042 4.85662475,8.04449649 3.87596014,8.07962529 L3.87596014,8.07962529 Z M3.80591267,0.550351288 C1.98467839,0.597189696 0.525356043,2.15456674 0.525356043,4.06323185 C0.525356043,5.98360656 1.98467839,7.54098361 3.80591267,7.58782201 C5.62714695,7.54098361 7.09814387,5.98360656 7.09814387,4.06323185 C7.09814387,2.15456674 5.62714695,0.597189696 3.80591267,0.550351288 L3.80591267,0.550351288 Z"></path>
                                            <path d="M10.5654938,7.96252927 L10.0634869,7.96252927 L10.0634869,0.433255269 L10.2386056,0.37470726 C10.3320022,0.351288056 12.7136162,-0.37470726 14.0445182,0.620608899 C14.6399217,1.06557377 14.9317862,1.74473068 14.9317862,2.65807963 C14.9317862,3.57142857 14.6399217,4.26229508 14.0445182,4.69555035 C12.9821316,5.49180328 11.2659685,5.18735363 10.5654938,5.0234192 L10.5654938,7.96252927 L10.5654938,7.96252927 Z M10.5654938,4.50819672 C11.1025244,4.64871194 12.8070129,4.9882904 13.7526538,4.28571429 C14.2079623,3.95784543 14.4297793,3.40749415 14.4297793,2.65807963 C14.4297793,1.90866511 14.2079623,1.37002342 13.7526538,1.03044496 C12.7953383,0.327868852 11.1025244,0.679156909 10.5654938,0.807962529 L10.5654938,4.50819672 L10.5654938,4.50819672 Z"></path>
                                            <polygon points="21.9015097 7.470726 21.9015097 7.96252927 17.4067969 7.96252927 17.4067969 0.245901639 21.7730893 0.245901639 21.7730893 0.737704918 17.9088038 0.737704918 17.9088038 4.62529274 20.8741468 4.62529274 20.8741468 5.12880562 17.9088038 5.12880562 17.9088038 7.45901639 21.9015097 7.45901639"></polygon>
                                            <polygon points="29.8869216 0.245901639 29.8869216 7.96252927 29.5250096 7.96252927 24.8668527 1.28805621 24.8668527 7.96252927 24.3765204 7.96252927 24.3765204 0.257611241 24.7617815 0.257611241 29.3849147 6.8969555 29.3849147 0.245901639 29.8869216 0.245901639"></polygon>
                                            <polygon points="37.2302316 0.222482436 37.7322385 0.222482436 37.7322385 7.96252927 37.2302316 7.96252927"></polygon>
                                            <polygon points="46.0445385 0.245901639 46.0445385 7.96252927 45.6826266 7.96252927 41.0244697 1.28805621 41.0244697 7.96252927 40.5341374 7.96252927 40.5341374 0.257611241 40.9193985 0.257611241 45.5425317 6.8969555 45.5425317 0.245901639 46.0445385 0.245901639"></polygon>
                                            <polygon points="54.0299504 0.245901639 54.0299504 7.96252927 53.6680385 7.96252927 49.0098815 1.28805621 49.0098815 7.96252927 48.5195492 7.96252927 48.5195492 0.257611241 48.9048103 0.257611241 53.5279435 6.8969555 53.5279435 0.245901639 54.0299504 0.245901639"></polygon>
                                            <path d="M60.1474297,8.07962529 L60.0657076,8.07962529 L59.9956601,8.07962529 C59.0033209,8.04449649 58.0927038,7.62295082 57.4039036,6.8969555 C56.6684052,6.13583138 56.2714695,5.14051522 56.2714695,4.05152225 C56.2714695,2.98594848 56.6684052,1.97892272 57.4039036,1.21779859 C58.0927038,0.491803279 59.0033209,0.0702576112 59.9956601,0.0351288056 L60.1357551,0.0351288056 C61.1164197,0.0702576112 62.0270368,0.491803279 62.7275116,1.21779859 C63.4513354,1.97892272 63.8482711,2.97423888 63.8482711,4.05152225 C63.8482711,5.12880562 63.4513354,6.13583138 62.7275116,6.8969555 C62.0270368,7.63466042 61.1164197,8.04449649 60.1474297,8.07962529 L60.1474297,8.07962529 Z M60.0657076,0.550351288 C58.2444733,0.597189696 56.785151,2.15456674 56.785151,4.06323185 C56.785151,5.98360656 58.2444733,7.54098361 60.0657076,7.58782201 C61.8869419,7.54098361 63.3579388,5.98360656 63.3579388,4.06323185 C63.3579388,2.15456674 61.8869419,0.597189696 60.0657076,0.550351288 L60.0657076,0.550351288 Z"></path>
                                            <polygon points="71.3433507 0.257611241 68.5998247 7.96252927 68.0744686 7.96252927 65.3309426 0.257611241 65.8562987 0.257611241 68.3313093 7.21311475 70.80632 0.257611241"></polygon>
                                            <path d="M75.1726125,0.222482436 L78.208003,7.96252927 L77.6709723,7.96252927 L77.0755688,6.45199063 C76.6786331,6.60421546 76.0131822,6.77985948 75.020843,6.77985948 C74.0168292,6.77985948 73.3397036,6.59250585 72.9544425,6.44028103 L72.3707136,7.96252927 L71.833683,7.96252927 L74.8223751,0.222482436 L75.1726125,0.222482436 L75.1726125,0.222482436 Z M76.8887756,5.99531616 L74.9974938,1.17096019 L73.1412358,5.98360656 C73.2112833,6.00702576 73.2813307,6.04215457 73.3747274,6.06557377 C73.7016156,6.17096019 74.2503208,6.29976581 75.020843,6.29976581 C75.9431347,6.28805621 76.5618874,6.12412178 76.8887756,5.99531616 L76.8887756,5.99531616 Z"></path>
                                            <polygon points="84.0219432 0.714285714 81.8271224 0.714285714 81.8271224 7.96252927 81.3367901 7.96252927 81.3367901 0.714285714 79.1419693 0.714285714 79.1419693 0.222482436 84.0219432 0.222482436"></polygon>
                                            <polygon points="86.3802081 0.222482436 86.882215 0.222482436 86.882215 7.96252927 86.3802081 7.96252927"></polygon>
                                            <path d="M93.3265824,8.07962529 L93.2448604,8.07962529 L93.1748129,8.07962529 C92.1824737,8.04449649 91.2718566,7.62295082 90.5830564,6.8969555 C89.847558,6.13583138 89.4506223,5.14051522 89.4506223,4.05152225 C89.4506223,2.98594848 89.847558,1.97892272 90.5830564,1.21779859 C91.2718566,0.491803279 92.1824737,0.0702576112 93.1748129,0.0351288056 L93.3149078,0.0351288056 C94.2955725,0.0702576112 95.2061896,0.491803279 95.9066643,1.21779859 C96.6304882,1.97892272 97.0274239,2.97423888 97.0274239,4.05152225 C97.0274239,5.12880562 96.6304882,6.13583138 95.9066643,6.8969555 C95.2178642,7.63466042 94.307247,8.04449649 93.3265824,8.07962529 L93.3265824,8.07962529 Z M93.2565349,0.550351288 C91.4353007,0.597189696 89.9759783,2.15456674 89.9759783,4.06323185 C89.9759783,5.98360656 91.4353007,7.54098361 93.2565349,7.58782201 C95.0777692,7.54098361 96.5487662,5.98360656 96.5487662,4.06323185 C96.5487662,2.15456674 95.0777692,0.597189696 93.2565349,0.550351288 L93.2565349,0.550351288 Z"></path>
                                            <polygon points="104.802693 0.245901639 104.802693 7.96252927 104.440781 7.96252927 99.7826245 1.28805621 99.7826245 7.96252927 99.2922922 7.96252927 99.2922922 0.257611241 99.6775533 0.257611241 104.300686 6.8969555 104.300686 0.245901639 104.802693 0.245901639"></polygon>
                                            <path d="M111.060268,7.44730679 L110.99022,7.5175644 C110.593284,7.85714286 110.079603,8.05620609 109.519223,8.06791569 L109.46085,8.06791569 C108.888796,8.06791569 108.36344,7.88056206 107.943155,7.54098361 C107.569568,7.22482436 107.324402,6.79156909 107.266029,6.33489461 L107.756362,6.2529274 C107.80306,6.59250585 107.989853,6.90866511 108.270043,7.15456674 C108.947169,7.71662763 110.009555,7.70491803 110.675006,7.11943794 C111.048593,6.74473068 111.247061,6.2529274 111.212037,5.73770492 C111.188688,5.24590164 110.955196,4.81264637 110.569935,4.53161593 C110.14965,4.22716628 109.74104,4.13348946 109.355779,4.03981265 C108.888796,3.93442623 108.386789,3.81733021 107.95483,3.37236534 C107.534545,2.93911007 107.312728,2.42388759 107.324402,1.90866511 C107.347751,1.45199063 107.546219,1.01873536 107.919806,0.667447307 C108.375114,0.269320843 108.888796,0.117096019 109.437501,0.117096019 C110.009555,0.117096019 110.546586,0.316159251 110.955196,0.679156909 C111.223712,0.913348946 111.410505,1.20608899 111.503902,1.51053864 L111.001895,1.59250585 C110.920173,1.39344262 110.803427,1.20608899 110.628308,1.05386417 C109.986206,0.480093677 108.935494,0.468384075 108.293392,1.01873536 C108.013202,1.28805621 107.849758,1.59250585 107.838084,1.93208431 C107.814735,2.30679157 107.989853,2.68149883 108.316742,3.02107728 C108.64363,3.36065574 109.028891,3.45433255 109.472525,3.55971897 C109.904484,3.65339578 110.383142,3.7704918 110.873474,4.14519906 C111.375481,4.50819672 111.690695,5.09367681 111.725719,5.71428571 C111.760742,6.35831382 111.515576,6.97892272 111.060268,7.44730679 L111.060268,7.44730679 Z"></path>
                                        </g>
                                    </g>
                                </g>
                            </g>
                        </g>
                    </g>
                </g>
            </g>
        </g>
    </g>
</svg>