<?xml version="1.0" encoding="UTF-8" standalone="no"?>
<!-- Created with Inkscape (http://www.inkscape.org/) -->

<svg
   xmlns:dc="http://purl.org/dc/elements/1.1/"
   xmlns:cc="http://creativecommons.org/ns#"
   xmlns:rdf="http://www.w3.org/1999/02/22-rdf-syntax-ns#"
   xmlns:svg="http://www.w3.org/2000/svg"
   xmlns="http://www.w3.org/2000/svg"
   xmlns:xlink="http://www.w3.org/1999/xlink"
   xmlns:sodipodi="http://sodipodi.sourceforge.net/DTD/sodipodi-0.dtd"
   xmlns:inkscape="http://www.inkscape.org/namespaces/inkscape"
   version="1.1"
   id="svg2"
   width="5561.333"
   height="2911.6926"
   viewBox="0 0 5561.333 2911.6927"
   sodipodi:docname="twitter_card_big.svg"
   inkscape:version="0.92.3 (2405546, 2018-03-11)"
   inkscape:export-filename="/home/flo/sync/git/yellowosm/yellowosm-yosm/static/img/twitter_card_big.png"
   inkscape:export-xdpi="16.49"
   inkscape:export-ydpi="16.49">
  <metadata
     id="metadata8">
    <rdf:RDF>
      <cc:Work
         rdf:about="">
        <dc:format>image/svg+xml</dc:format>
        <dc:type
           rdf:resource="http://purl.org/dc/dcmitype/StillImage" />
        <dc:title />
      </cc:Work>
    </rdf:RDF>
  </metadata>
  <defs
     id="defs6">
    <filter
       inkscape:collect="always"
       style="color-interpolation-filters:sRGB"
       id="filter2581"
       x="-0.08522293"
       width="1.1704459"
       y="-0.062329192"
       height="1.1246583">
      <feGaussianBlur
         inkscape:collect="always"
         stdDeviation="0.37706539"
         id="feGaussianBlur2583" />
    </filter>
  </defs>
  <sodipodi:namedview
     pagecolor="#ffffff"
     bordercolor="#666666"
     borderopacity="1"
     objecttolerance="10"
     gridtolerance="10"
     guidetolerance="10"
     inkscape:pageopacity="0"
     inkscape:pageshadow="2"
     inkscape:window-width="1881"
     inkscape:window-height="1018"
     id="namedview4"
     showgrid="false"
     fit-margin-top="0"
     fit-margin-left="0"
     fit-margin-right="0"
     fit-margin-bottom="0"
     inkscape:pagecheckerboard="false"
     borderlayer="true"
     inkscape:zoom="0.74712083"
     inkscape:cx="1839.2799"
     inkscape:cy="951.41736"
     inkscape:window-x="39"
     inkscape:window-y="34"
     inkscape:window-maximized="1"
     inkscape:current-layer="svg2" />
  <image
     sodipodi:absref="/home/flo/sync/git/yellowosm/yellowosm-yosm/static/img/banner_base.jpg"
     xlink:href="banner_base.jpg"
     width="5561.3335"
     height="3765.3333"
     preserveAspectRatio="none"
     id="image10"
     x="-0.00048828125"
     y="0" />
  <rect
     style="opacity:0.91000001;fill:#000000;fill-opacity:0.50196078;fill-rule:nonzero;stroke:none;stroke-width:0.5;stroke-linecap:butt;stroke-miterlimit:4;stroke-dasharray:none;stroke-opacity:1"
     id="rect5175"
     width="5637.145"
     height="3920.5505"
     x="-32.491238"
     y="0" />
  <g
     id="g5752"
     transform="translate(-4.8828125e-4,-220)">
    <g
       style="fill:#ffd303;fill-opacity:1"
       inkscape:export-ydpi="862.52002"
       inkscape:export-xdpi="862.52002"
       id="g5151"
       transform="matrix(30.845269,0,0,30.845269,955.21774,-6301.3969)">
      <g
         id="g5149">
        <circle
           transform="rotate(30)"
           style="opacity:1;fill:#ffd303;fill-opacity:1;stroke:#ffd303;stroke-width:0.62599999;stroke-linecap:square;stroke-miterlimit:4;stroke-dasharray:none;stroke-opacity:1"
           id="circle5141"
           cx="141.5806"
           cy="216.66995"
           r="9.9937668" />
        <path
           sodipodi:nodetypes="cccccccccccccccccccccc"
           inkscape:connector-curvature="0"
           id="path5143"
           d="m 18.025295,252.46988 -2.58e-4,4.5e-4 c -2.36905,-1.36546 -5.395607,-0.57956 -6.800197,1.76649 -0.920255,1.51519 -0.816888,5.46818 -1.2586355,12.08226 5.2503285,-3.4451 8.5449845,-5.17488 9.9480505,-7.11435 1.429759,-2.30174 0.468525,-5.37375 -1.88896,-6.73485 z m -1.112681,1.92522 c 1.26243,0.72886 1.695049,2.34334 0.966171,3.60581 -0.625784,1.08088 -1.923703,1.57506 -3.11002,1.18438 0.05316,0.0186 0.127871,0.0452 0.127871,0.0452 l -0.165863,0.29448 -0.230924,-0.13331 c -2.369708,4.1775 -2.390895,4.20158 -2.390895,4.20158 l -0.975131,-0.54596 c 0,0 0.0099,-0.0192 2.658479,-4.06414 l -0.230928,-0.13332 0.17574,-0.28879 c 0,0 0.04074,0.0374 0.09513,0.0854 -0.930105,-0.83293 -1.149326,-2.2036 -0.525391,-3.28507 l 4.5e-4,2.5e-4 c 0.728878,-1.26246 2.342915,-1.69531 3.605356,-0.96643 z"
           style="opacity:1;fill:#040400;fill-opacity:0.25896415;stroke:none;stroke-width:0.1;stroke-linecap:square;stroke-miterlimit:4;stroke-dasharray:none;stroke-opacity:1;filter:url(#filter2581)" />
        <path
           style="opacity:1;fill:#fffef7;fill-opacity:1;stroke:none;stroke-width:0.1;stroke-linecap:square;stroke-miterlimit:4;stroke-dasharray:none;stroke-opacity:1"
           d="m 18.025295,251.94071 -2.58e-4,4.5e-4 c -2.36905,-1.36546 -5.395607,-0.57956 -6.800197,1.76649 -0.920255,1.51519 -0.816888,5.46818 -1.2586355,12.08226 5.2503285,-3.4451 8.5449845,-5.17488 9.9480505,-7.11435 1.429759,-2.30174 0.468525,-5.37375 -1.88896,-6.73485 z m -1.112681,1.92522 c 1.26243,0.72886 1.695049,2.34334 0.966171,3.60581 -0.625784,1.08088 -1.923703,1.57506 -3.11002,1.18438 0.05316,0.0186 0.127871,0.0452 0.127871,0.0452 l -0.165863,0.29448 -0.230924,-0.13331 c -2.369708,4.1775 -2.390895,4.20158 -2.390895,4.20158 l -0.975131,-0.54596 c 0,0 0.0099,-0.0192 2.658479,-4.06414 l -0.230928,-0.13332 0.17574,-0.28879 c 0,0 0.04074,0.0374 0.09513,0.0854 -0.930105,-0.83293 -1.149326,-2.2036 -0.525391,-3.28507 l 4.5e-4,2.5e-4 c 0.728878,-1.26246 2.342915,-1.69531 3.605356,-0.96643 z"
           id="path5145"
           inkscape:connector-curvature="0"
           sodipodi:nodetypes="cccccccccccccccccccccc" />
        <circle
           style="opacity:1;fill:#fffef7;fill-opacity:1;stroke:none;stroke-width:0.75119996;stroke-linecap:square;stroke-miterlimit:4;stroke-dasharray:none;stroke-opacity:1"
           id="circle5147"
           cx="15.640455"
           cy="256.23746"
           r="1.8040693" />
      </g>
    </g>
    <text
       id="text5155"
       y="1858.8041"
       x="3093.2639"
       style="font-style:normal;font-variant:normal;font-weight:bold;font-stretch:normal;font-size:543.82086182px;line-height:125%;font-family:Carlito;-inkscape-font-specification:'Carlito, Bold';font-variant-ligatures:normal;font-variant-caps:normal;font-variant-numeric:normal;font-feature-settings:normal;text-align:center;letter-spacing:10.8765974px;word-spacing:0px;writing-mode:lr-tb;text-anchor:middle;fill:#ffffff;fill-opacity:1;stroke:none;stroke-width:4.79693604;stroke-linecap:butt;stroke-linejoin:miter;stroke-miterlimit:4;stroke-dasharray:none;stroke-opacity:1"
       xml:space="preserve"><tspan
         dx="0 0 0 -19.012636 0 0 25.692749"
         style="font-style:normal;font-variant:normal;font-weight:bold;font-stretch:normal;font-size:543.82086182px;font-family:Carlito;-inkscape-font-specification:'Carlito, Bold';font-variant-ligatures:normal;font-variant-caps:normal;font-variant-numeric:normal;font-feature-settings:normal;text-align:center;letter-spacing:10.8765974px;writing-mode:lr-tb;text-anchor:middle;fill:#ffffff;fill-opacity:1;stroke:none;stroke-width:4.79693604;stroke-miterlimit:4;stroke-dasharray:none;stroke-opacity:1"
         y="1858.8041"
         x="3098.7024"
         id="tspan5153"
         sodipodi:role="line">YellowOSM</tspan></text>
  </g>
</svg>
