<?xml version="1.0" encoding="UTF-8" standalone="no"?>
<!-- Created with Inkscape (http://www.inkscape.org/) -->

<svg
   xmlns:dc="http://purl.org/dc/elements/1.1/"
   xmlns:cc="http://creativecommons.org/ns#"
   xmlns:rdf="http://www.w3.org/1999/02/22-rdf-syntax-ns#"
   xmlns:svg="http://www.w3.org/2000/svg"
   xmlns="http://www.w3.org/2000/svg"
   xmlns:sodipodi="http://sodipodi.sourceforge.net/DTD/sodipodi-0.dtd"
   xmlns:inkscape="http://www.inkscape.org/namespaces/inkscape"
   viewBox="10 2 26 24.5"
   version="1.1"
   id="svg2173"
   inkscape:version="0.92.3 (2405546, 2018-03-11)"
   sodipodi:docname="YellowOSM_Logo.svg">
  <defs
     id="defs2167" />
  <sodipodi:namedview
     id="base"
     pagecolor="#ffffff"
     bordercolor="#666666"
     borderopacity="1.0"
     inkscape:pageopacity="0.0"
     inkscape:pageshadow="2"
     inkscape:zoom="2.8"
     inkscape:cx="92.546254"
     inkscape:cy="21.48946"
     inkscape:document-units="mm"
     inkscape:current-layer="layer1"
     showgrid="false"
     fit-margin-top="0"
     fit-margin-left="0"
     fit-margin-right="0"
     fit-margin-bottom="0"
     inkscape:window-width="1879"
     inkscape:window-height="1145"
     inkscape:window-x="41"
     inkscape:window-y="27"
     inkscape:window-maximized="1" />
  <metadata
     id="metadata2170">
    <rdf:RDF>
      <cc:Work
         rdf:about="">
        <dc:format>image/svg+xml</dc:format>
        <dc:type
           rdf:resource="http://purl.org/dc/dcmitype/StillImage" />
        <dc:title></dc:title>
      </cc:Work>
    </rdf:RDF>
  </metadata>
  <g
     inkscape:label="Ebene 1"
     inkscape:groupmode="layer"
     id="layer1"
     transform="translate(237.36905,0.65624982)">
    <rect
       inkscape:export-ydpi="541.94"
       inkscape:export-xdpi="541.94"
       y="-0.65624982"
       x="-237.36905"
       height="35.907738"
       width="46.869045"
       id="rect2138"
       style="opacity:1;fill:#ffffff;fill-opacity:1;stroke:none;stroke-width:0.16500001;stroke-linecap:square;stroke-miterlimit:4;stroke-dasharray:none;stroke-opacity:1" />
    <g
       id="g2150"
       transform="translate(-193.15729,106.64152)"
       style="fill:#ffd303;fill-opacity:1">
      <circle
         r="9.9937668"
         cy="-69.945915"
         cx="-64.935432"
         id="circle2140"
         style="opacity:1;fill:#ffd303;fill-opacity:1;stroke:#ffd303;stroke-width:0.62599999;stroke-linecap:square;stroke-miterlimit:4;stroke-dasharray:none;stroke-opacity:1"
         transform="rotate(30)" />
      <path
         sodipodi:nodetypes="cccccccccccccccccccccc"
         inkscape:connector-curvature="0"
         id="path2146"
         d="m -17.514907,-99.533922 -2.58e-4,4.4e-4 c -2.36905,-1.365458 -5.395607,-0.579558 -6.800197,1.7665 -0.920255,1.515187 -0.816888,5.468172 -1.258635,12.08225 5.250328,-3.445097 8.544984,-5.174875 9.94805,-7.11434 1.429759,-2.30174 0.468525,-5.37375 -1.88896,-6.73485 z m -1.112681,1.92522 c 1.26243,0.72886 1.695049,2.34334 0.966171,3.6058 -0.625784,1.08089 -1.923703,1.57507 -3.11002,1.18439 0.05316,0.0186 0.127871,0.0452 0.127871,0.0452 l -0.165863,0.29448 -0.230924,-0.13332 c -2.369708,4.177509 -2.390895,4.20159 -2.390895,4.20159 l -0.975131,-0.545961 c 0,0 0.0099,-0.01924 2.658479,-4.064139 l -0.230928,-0.13332 0.17574,-0.28879 c 0,0 0.04074,0.0374 0.09513,0.0854 -0.930105,-0.83293 -1.149326,-2.2036 -0.525391,-3.28508 l 4.48e-4,2.6e-4 c 0.728878,-1.26246 2.342915,-1.69531 3.605356,-0.96643 z"
         style="opacity:1;fill:#fffef7;fill-opacity:1;stroke:none;stroke-width:0.1;stroke-linecap:square;stroke-miterlimit:4;stroke-dasharray:none;stroke-opacity:1" />
      <circle
         r="1.8040693"
         cy="-95.237152"
         cx="-19.899746"
         id="circle2148"
         style="opacity:1;fill:#fffef7;fill-opacity:1;stroke:none;stroke-width:0.75119996;stroke-linecap:square;stroke-miterlimit:4;stroke-dasharray:none;stroke-opacity:1" />
    </g>
  </g>
</svg>
