<svg xmlns="http://www.w3.org/2000/svg" width="77.911" height="77.911" viewBox="0 0 20.614 20.614"><defs><filter id="a" x="-.085" width="1.17" y="-.062" height="1.125" color-interpolation-filters="sRGB"><feGaussianBlur stdDeviation=".377"/></filter></defs><g transform="translate(-3.97 -248.125)" fill="#ffd303"><circle transform="rotate(30)" cx="141.581" cy="216.67" r="9.994" stroke="#ffd303" stroke-width=".626" stroke-linecap="square"/><path d="M18.025 252.47a5.01 5.01 0 0 0-6.8 1.767c-.92 1.515-.817 5.468-1.259 12.082 5.25-3.445 8.545-5.175 9.948-7.114 1.43-2.302.469-5.374-1.889-6.735zm-1.112 1.925a2.64 2.64 0 0 1 .966 3.606 2.64 2.64 0 0 1-3.11 1.184l.128.045-.166.295-.231-.133c-2.37 4.177-2.391 4.201-2.391 4.201l-.975-.546s.01-.019 2.658-4.064l-.23-.133.175-.289.095.085a2.64 2.64 0 0 1 3.08-4.251z" fill="#040400" fill-opacity=".259" filter="url(#a)"/><path d="M18.025 251.94v.001a5.01 5.01 0 0 0-6.8 1.767c-.92 1.515-.817 5.468-1.259 12.082 5.25-3.445 8.545-5.175 9.948-7.114 1.43-2.302.469-5.374-1.889-6.735zm-1.112 1.926a2.64 2.64 0 0 1 .966 3.606 2.64 2.64 0 0 1-3.11 1.184l.128.045-.166.295-.231-.134c-2.37 4.178-2.391 4.202-2.391 4.202l-.975-.546s.01-.02 2.658-4.064l-.23-.133.175-.29s.04.038.095.086a2.64 2.64 0 0 1 3.08-4.251z" fill="#fffef7"/><circle cx="15.64" cy="256.237" r="1.804" fill="#fffef7"/></g></svg>