<?xml version="1.0" standalone="no"?>
<!DOCTYPE svg PUBLIC "-//W3C//DTD SVG 20010904//EN"
 "http://www.w3.org/TR/2001/REC-SVG-20010904/DTD/svg10.dtd">
<svg version="1.0" xmlns="http://www.w3.org/2000/svg"
 width="2500.000000pt" height="2500.000000pt" viewBox="0 0 2500.000000 2500.000000"
 preserveAspectRatio="xMidYMid meet">
<metadata>
Created by potrace 1.11, written by Peter Selinger 2001-2013
</metadata>
<g transform="translate(0.000000,2500.000000) scale(0.100000,-0.100000)"
fill="#000000" stroke="none">
<path d="M12130 24994 c-1233 -50 -2245 -220 -3360 -566 -1584 -490 -3122
-1340 -4381 -2419 -358 -307 -818 -750 -1104 -1064 -1701 -1864 -2794 -4172
-3154 -6655 -91 -624 -125 -1111 -125 -1780 0 -461 8 -689 39 -1055 216 -2522
1176 -4898 2771 -6855 993 -1218 2205 -2236 3584 -3008 2168 -1214 4667 -1755
7145 -1546 4006 336 7607 2580 9672 6025 932 1556 1513 3281 1707 5079 160
1473 59 2943 -300 4384 -781 3129 -2757 5849 -5494 7561 -1787 1118 -3798
1756 -5940 1885 -178 11 -905 20 -1060 14z m2215 -3819 c667 -29 1417 -205
2060 -483 1626 -703 2874 -2066 3435 -3751 411 -1235 409 -2530 -5 -3697 -109
-305 -275 -661 -434 -926 -266 -447 -923 -1146 -1676 -1783 -597 -505 -1387
-1089 -2400 -1775 -771 -521 -1620 -1070 -3490 -2255 -2108 -1336 -3216 -2046
-4259 -2728 -165 -108 -301 -195 -302 -194 -1 1 2 56 7 122 63 856 185 3025
314 5580 98 1942 142 2723 195 3525 170 2544 386 3953 747 4880 274 702 882
1504 1588 2090 1026 854 2327 1351 3660 1399 205 8 293 7 560 -4z"/>
<path d="M13845 18459 c-447 -37 -901 -172 -1288 -385 -128 -70 -355 -221
-467 -310 -118 -94 -401 -379 -498 -501 -376 -476 -604 -1026 -678 -1633 -20
-162 -23 -527 -6 -680 68 -608 282 -1148 646 -1628 68 -90 242 -290 278 -320
14 -11 3 -34 -93 -189 -60 -97 -107 -178 -106 -179 1 -1 63 -37 137 -79 74
-43 136 -79 138 -80 1 -1 -111 -175 -249 -386 -332 -506 -2668 -4076 -2838
-4338 -73 -112 -129 -207 -124 -211 4 -4 265 -150 578 -325 314 -175 575 -322
582 -327 8 -6 23 11 51 59 156 271 336 586 804 1408 513 900 1680 2956 1911
3365 60 107 118 209 129 227 l19 31 137 -79 c107 -62 139 -76 148 -66 6 6 52
85 102 175 79 143 88 163 74 173 -15 9 -14 9 3 5 319 -83 567 -116 870 -116
1093 1 2114 565 2701 1492 79 125 240 448 288 578 290 791 270 1620 -59 2395
-168 397 -456 802 -776 1092 -191 173 -438 347 -669 471 -518 277 -1157 409
-1745 361z m511 -1120 c407 -39 792 -189 1120 -435 98 -73 276 -244 359 -344
486 -585 632 -1372 390 -2098 -231 -694 -812 -1235 -1520 -1417 -205 -52 -334
-69 -550 -69 -211 0 -344 16 -536 64 -776 193 -1398 817 -1588 1590 -17 69
-38 175 -46 235 -22 147 -22 442 0 594 145 1022 970 1799 2000 1884 94 8 269
6 371 -4z"/>
</g>
</svg>
