<?xml version="1.0" encoding="UTF-8" standalone="no"?>
<!-- Created with Inkscape (http://www.inkscape.org/) -->

<svg
   xmlns:dc="http://purl.org/dc/elements/1.1/"
   xmlns:cc="http://creativecommons.org/ns#"
   xmlns:rdf="http://www.w3.org/1999/02/22-rdf-syntax-ns#"
   xmlns:svg="http://www.w3.org/2000/svg"
   xmlns="http://www.w3.org/2000/svg"
   xmlns:sodipodi="http://sodipodi.sourceforge.net/DTD/sodipodi-0.dtd"
   xmlns:inkscape="http://www.inkscape.org/namespaces/inkscape"
   width="105.57207mm"
   height="22.613922mm"
   viewBox="0 0 105.57207 22.613922"
   version="1.1"
   id="svg2173"
   inkscape:version="0.92.3 (2405546, 2018-03-11)"
   sodipodi:docname="YellowOSM_Logo_quer.svg"
   inkscape:export-filename="/home/flo/sync/git/yellowosm/logo/YellowOSM_Logo_quer.png"
   inkscape:export-xdpi="481.19"
   inkscape:export-ydpi="481.19">
  <defs
     id="defs2167">
    <filter
       inkscape:collect="always"
       style="color-interpolation-filters:sRGB"
       id="filter2581"
       x="-0.08522293"
       width="1.1704459"
       y="-0.062329192"
       height="1.1246583">
      <feGaussianBlur
         inkscape:collect="always"
         stdDeviation="0.37706539"
         id="feGaussianBlur2583" />
    </filter>
  </defs>
  <sodipodi:namedview
     id="base"
     pagecolor="#ffffff"
     bordercolor="#666666"
     borderopacity="1.0"
     inkscape:pageopacity="1"
     inkscape:pageshadow="2"
     inkscape:zoom="1.0889445"
     inkscape:cx="159.30845"
     inkscape:cy="-24.305312"
     inkscape:document-units="mm"
     inkscape:current-layer="g2150"
     showgrid="false"
     fit-margin-top="1"
     fit-margin-left="1"
     fit-margin-right="1"
     fit-margin-bottom="1"
     inkscape:window-width="1881"
     inkscape:window-height="1018"
     inkscape:window-x="39"
     inkscape:window-y="34"
     inkscape:window-maximized="1"
     inkscape:pagecheckerboard="true" />
  <metadata
     id="metadata2170">
    <rdf:RDF>
      <cc:Work
         rdf:about="">
        <dc:format>image/svg+xml</dc:format>
        <dc:type
           rdf:resource="http://purl.org/dc/dcmitype/StillImage" />
        <dc:title></dc:title>
      </cc:Work>
    </rdf:RDF>
  </metadata>
  <g
     inkscape:label="Ebene 1"
     inkscape:groupmode="layer"
     id="layer1"
     transform="translate(288.3045,48.43015)">
    <g
       id="g2150"
       transform="translate(-193.15729,106.64152)"
       style="fill:#ffd303;fill-opacity:1">
      <text
         id="text2144"
         y="-138.47105"
         x="-29.984011"
         style="font-style:normal;font-variant:normal;font-weight:bold;font-stretch:normal;font-size:14.11640263px;line-height:125%;font-family:'Open Sans';-inkscape-font-specification:'Open Sans, Bold';font-variant-ligatures:normal;font-variant-caps:normal;font-variant-numeric:normal;font-feature-settings:normal;text-align:center;letter-spacing:0.28232923px;word-spacing:0px;writing-mode:lr-tb;text-anchor:middle;fill:#ffd303;fill-opacity:1;stroke:none;stroke-width:0.12451646;stroke-linecap:butt;stroke-linejoin:miter;stroke-miterlimit:4;stroke-dasharray:none;stroke-opacity:1"
         xml:space="preserve"><tspan
           dx="0 0 0 -0.49352041 0 0 0.66691941"
           style="font-style:normal;font-variant:normal;font-weight:bold;font-stretch:normal;font-size:14.11640263px;font-family:'Open Sans';-inkscape-font-specification:'Open Sans, Bold';font-variant-ligatures:normal;font-variant-caps:normal;font-variant-numeric:normal;font-feature-settings:normal;text-align:center;letter-spacing:0.28232923px;writing-mode:lr-tb;text-anchor:middle;fill:#ffd303;fill-opacity:1;stroke:none;stroke-width:0.12451646;stroke-miterlimit:4;stroke-dasharray:none;stroke-opacity:1"
           y="-138.47105"
           x="-29.842844"
           id="tspan2142"
           sodipodi:role="line">YellowOSM</tspan></text>
      <g
         transform="translate(-98.117665,-402.19669)"
         id="g2682"
         inkscape:export-xdpi="862.52002"
         inkscape:export-ydpi="862.52002">
        <g
           id="g2680">
          <circle
             r="9.9937668"
             cy="216.66995"
             cx="141.5806"
             id="circle2672"
             style="opacity:1;fill:#ffd303;fill-opacity:1;stroke:#ffd303;stroke-width:0.62599999;stroke-linecap:square;stroke-miterlimit:4;stroke-dasharray:none;stroke-opacity:1"
             transform="rotate(30)" />
          <path
             style="opacity:1;fill:#040400;fill-opacity:0.25896415;stroke:none;stroke-width:0.1;stroke-linecap:square;stroke-miterlimit:4;stroke-dasharray:none;stroke-opacity:1;filter:url(#filter2581)"
             d="m 18.025295,252.46988 -2.58e-4,4.5e-4 c -2.36905,-1.36546 -5.395607,-0.57956 -6.800197,1.76649 -0.920255,1.51519 -0.816888,5.46818 -1.2586355,12.08226 5.2503285,-3.4451 8.5449845,-5.17488 9.9480505,-7.11435 1.429759,-2.30174 0.468525,-5.37375 -1.88896,-6.73485 z m -1.112681,1.92522 c 1.26243,0.72886 1.695049,2.34334 0.966171,3.60581 -0.625784,1.08088 -1.923703,1.57506 -3.11002,1.18438 0.05316,0.0186 0.127871,0.0452 0.127871,0.0452 l -0.165863,0.29448 -0.230924,-0.13331 c -2.369708,4.1775 -2.390895,4.20158 -2.390895,4.20158 l -0.975131,-0.54596 c 0,0 0.0099,-0.0192 2.658479,-4.06414 l -0.230928,-0.13332 0.17574,-0.28879 c 0,0 0.04074,0.0374 0.09513,0.0854 -0.930105,-0.83293 -1.149326,-2.2036 -0.525391,-3.28507 l 4.5e-4,2.5e-4 c 0.728878,-1.26246 2.342915,-1.69531 3.605356,-0.96643 z"
             id="path2674"
             inkscape:connector-curvature="0"
             sodipodi:nodetypes="cccccccccccccccccccccc" />
          <path
             sodipodi:nodetypes="cccccccccccccccccccccc"
             inkscape:connector-curvature="0"
             id="path2676"
             d="m 18.025295,251.94071 -2.58e-4,4.5e-4 c -2.36905,-1.36546 -5.395607,-0.57956 -6.800197,1.76649 -0.920255,1.51519 -0.816888,5.46818 -1.2586355,12.08226 5.2503285,-3.4451 8.5449845,-5.17488 9.9480505,-7.11435 1.429759,-2.30174 0.468525,-5.37375 -1.88896,-6.73485 z m -1.112681,1.92522 c 1.26243,0.72886 1.695049,2.34334 0.966171,3.60581 -0.625784,1.08088 -1.923703,1.57506 -3.11002,1.18438 0.05316,0.0186 0.127871,0.0452 0.127871,0.0452 l -0.165863,0.29448 -0.230924,-0.13331 c -2.369708,4.1775 -2.390895,4.20158 -2.390895,4.20158 l -0.975131,-0.54596 c 0,0 0.0099,-0.0192 2.658479,-4.06414 l -0.230928,-0.13332 0.17574,-0.28879 c 0,0 0.04074,0.0374 0.09513,0.0854 -0.930105,-0.83293 -1.149326,-2.2036 -0.525391,-3.28507 l 4.5e-4,2.5e-4 c 0.728878,-1.26246 2.342915,-1.69531 3.605356,-0.96643 z"
             style="opacity:1;fill:#fffef7;fill-opacity:1;stroke:none;stroke-width:0.1;stroke-linecap:square;stroke-miterlimit:4;stroke-dasharray:none;stroke-opacity:1" />
          <circle
             r="1.8040693"
             cy="256.23746"
             cx="15.640455"
             id="circle2678"
             style="opacity:1;fill:#fffef7;fill-opacity:1;stroke:none;stroke-width:0.75119996;stroke-linecap:square;stroke-miterlimit:4;stroke-dasharray:none;stroke-opacity:1" />
        </g>
      </g>
    </g>
  </g>
</svg>
